# xmcd
#
# Track frame offsets:
#	150
#	13058
#	34268
#	56493
#	68339
#
# Disc length: 1151 seconds
#
# Revision: 0
# Processed by: cddbd v1.5.2PL0 Copyright (c) Steve Scherf et al.
# Submitted via: EZCDAudioConverter 1.0.6.1
#
DISCID=37047d05
DTITLE=M.S.G.-The Acoustic Blues Trio - Be Careful What You Ask For
DYEAR=2011
DGENRE=Blues
TTITLE0=Charlie Stone
TTITLE1=Angel From Montgomery
TTITLE2=Do You See Me Now?
TTITLE3=My Litttle One
TTITLE4=Glory, Glory, Hallelujah
EXTD=
EXTT0=
EXTT1=
EXTT2=
EXTT3=
EXTT4=
PLAYORDER=
